# xmcd
# 
# Track frame offsets:
#     150
#     3048
#     24274
#     37352
# 
# Disc length: 769
# 
# Revision: 0
# Processed by: cddbd v1.5.2PL0 Copyright (c) Steve Scherf et al.
# Submitted via: fre:ac v1.0.17
# 
DISCID=2302ff04
DTITLE=Metal Jam - Frailty
DYEAR=0
DGENRE=
TTITLE0=Just a Dream
TTITLE1=Frailty
TTITLE2=Make Your Choices
TTITLE3=Avenca
EXTD=
EXTT0=
EXTT1=
EXTT2=
EXTT3=
PLAYORDER=
